# Blender v2.91.0 OBJ File: 'gestalt_cube.blend'
# www.blender.org
mtllib gestalt_cube_4.mtl
o gestalt_cube_object_3
v 33.646748 -13.256271 -41.420395
v 33.646748 -18.889103 -30.485050
v -33.646748 -18.889103 -30.485050
v -33.646748 -13.256271 -41.420395
v 33.646748 -41.420395 13.256271
v 33.646748 -24.521917 -19.549734
v 33.646748 8.284088 -2.651257
v 33.646748 2.651257 8.284088
v 33.646748 -19.219404 -2.981559
v 33.646748 -24.852219 7.953757
v 33.646748 7.953757 24.852219
v 33.646748 24.852219 -7.953757
v 33.646748 41.420395 -13.256271
v 33.646748 13.256271 41.420395
v 20.188036 -35.787563 2.320927
v 20.188036 -24.521917 -19.549734
v -33.646748 -41.420395 13.256271
v -33.646748 -24.521917 -19.549734
v 6.729357 -24.521917 -19.549734
v 6.729357 -30.154749 -8.614389
v -20.188036 -30.154749 -8.614389
v -20.188036 -35.787563 2.320927
v 20.188036 2.651257 8.284088
v 20.188036 8.284088 -2.651257
v 20.188036 -24.852219 7.953757
v 20.188036 -19.219404 -2.981559
v 20.188036 7.953757 24.852219
v 20.188036 2.320927 35.787563
v 20.188036 -30.485050 18.889103
v -33.646748 2.320927 35.787563
v -33.646748 19.219404 2.981559
v 6.729357 19.219404 2.981559
v 6.729357 13.586573 13.916903
v -20.188036 13.586573 13.916903
v -20.188036 7.953757 24.852219
v -33.646748 30.154749 8.614389
v -33.646748 13.256271 41.420395
v 6.729357 30.154749 8.614389
v -33.646748 41.420395 -13.256271
v -33.646748 35.787563 -2.320927
v 20.188036 35.787563 -2.320927
v 20.188036 18.889103 30.485050
v -20.188036 18.889103 30.485050
v -20.188036 24.521917 19.549734
v 6.729357 24.521917 19.549734
v -33.646748 -8.614389 30.154749
v -20.188036 -30.485050 18.889103
v -20.188036 -19.549734 24.521917
v 6.729357 -19.549734 24.521917
v 6.729357 -8.614389 30.154749
v -33.646748 2.651257 8.284088
v -33.646748 8.284088 -2.651257
v -33.646748 -2.981559 19.219404
v -33.646748 -24.852219 7.953757
v -33.646748 -19.219404 -2.981559
v 6.729357 2.651257 8.284088
v 6.729357 8.284088 -2.651257
v -20.188036 -19.219404 -2.981559
v -20.188036 -8.284088 2.651257
v 6.729357 -8.284088 2.651257
v -20.188036 -13.586573 -13.916903
v -20.188036 -2.651257 -8.284088
v 6.729357 -19.219404 -2.981559
v 6.729357 -13.586573 -13.916903
v 6.729357 -2.651257 -8.284088
v -20.188036 -24.852219 7.953757
v 6.729357 -13.916903 13.586573
v -20.188036 -13.916903 13.586573
v 6.729357 -2.981559 19.219404
v -33.646748 41.422523 -13.260406
v 33.646748 41.422523 -13.260406
v -33.646748 30.487179 -18.893238
v -33.646748 24.852219 -7.953757
v 20.188036 30.487179 -18.893238
v 20.188036 24.852219 -7.953757
v 20.188036 -7.953757 -24.852219
v 20.188036 -2.318797 -35.791698
v -20.188036 -7.953757 -24.852219
v -20.188036 2.981559 -19.219404
v 6.729357 2.981559 -19.219404
v 6.729357 13.916903 -13.586573
v -33.646748 13.916903 -13.586573
v -20.188036 -2.318797 -35.791698
v -33.646748 -13.254142 -41.424530
v -33.646748 19.551865 -24.526052
v 6.729357 19.551865 -24.526052
v 6.729357 8.616519 -30.158884
v -20.188036 8.616519 -30.158884
v 33.646748 -13.254142 -41.424530
vt 0.000000 144.938995
vt 181.173996 181.173996
vt 0.000000 181.173996
vt -0.000000 -0.000000
vt -144.938995 36.234699
vt -181.173996 -0.000000
vt 181.173996 -0.000000
vt 144.938995 36.234699
vt 36.234699 72.469498
vt 108.704002 108.704002
vt 0.000000 108.704002
vt -0.000000 108.704002
vt -36.234699 72.469498
vt -0.000000 72.469498
vt 0.000000 -0.000000
vt 36.234699 108.704002
vt -0.000000 108.704002
vt -36.234699 36.234699
vt -0.000000 36.234699
vt -0.000000 72.469498
vt -36.234699 36.234699
vt -0.000000 36.234699
vt 36.234699 144.938995
vt 0.000000 144.938995
vt 144.938995 36.234699
vt 36.234699 0.000000
vt 144.938995 0.000000
vt 181.173996 0.000000
vt 181.173996 108.704002
vt 144.938995 36.234699
vt 144.938995 108.704002
vt 181.173996 0.000000
vt 181.173996 108.704002
vt 72.469498 181.173996
vt 181.173996 144.938995
vt 181.173996 181.173996
vt -181.173996 -0.000000
vt -0.000000 -0.000000
vt -144.938995 36.234699
vt -181.173996 0.000000
vt -144.938995 36.234699
vt -0.000000 108.704002
vt 0.000000 -0.000000
vt 36.234699 72.469498
vt -181.173996 72.469498
vt -72.469498 108.704002
vt -181.173996 108.704002
vt -144.938995 72.469498
vt -72.469498 108.704002
vt -181.173996 108.704002
vt -36.234699 72.469498
vt -72.469498 108.704002
vt -72.469498 72.469498
vt -72.469498 72.469498
vt -144.938995 108.704002
vt -144.938995 72.469498
vt -72.469498 0.000000
vt -144.938995 36.234699
vt -144.938995 0.000000
vt -36.234699 108.704002
vt 0.000000 72.469498
vt 0.000000 108.704002
vt 181.173996 0.000000
vt 181.173996 108.704002
vt 144.938995 36.234699
vt -72.469498 108.704002
vt -108.704002 72.469498
vt -72.469498 72.469498
vt 144.938995 72.469498
vt 72.469498 108.704002
vt 72.469498 72.469498
vt -0.000000 36.234699
vt -0.000000 72.469498
vt -181.173996 36.234699
vt -144.938995 36.234699
vt 144.938995 72.469498
vt 181.173996 36.234699
vt 181.173996 108.704002
vt 72.469498 36.234699
vt 144.938995 0.000000
vt 144.938995 36.234699
vt -72.469498 36.234699
vt -108.704002 -0.000000
vt -72.469498 -0.000000
vt -181.173996 36.234699
vt -72.469498 0.000000
vt -72.469498 36.234699
vt -36.234699 36.234699
vt -72.469498 0.000000
vt -36.234699 0.000000
vt -36.234699 0.000000
vt 144.938995 36.234699
vt 36.234699 0.000000
vt 144.938995 0.000000
vt -181.173996 181.173996
vt -0.000000 181.188004
vt -181.173996 181.188004
vt 144.938995 144.938995
vt 181.173996 144.938995
vt 181.173996 181.173996
vt 36.234699 144.938995
vt 181.173996 181.186996
vt 36.234699 181.186996
vt 144.938995 144.938995
vt 36.234699 181.188004
vt 36.234699 144.938995
vt -181.173996 0.000000
vt -36.234699 36.234699
vt -144.938995 36.234699
vt -36.234699 144.938995
vt -144.938995 181.188004
vt -144.938995 144.938995
vt 181.173996 0.000000
vt 36.234699 36.234699
vt 0.000000 0.000000
vt 108.704002 181.188004
vt 0.000000 181.188004
vt 0.000000 181.173996
vt -181.173996 144.938995
vt -72.469498 181.188004
vt -181.173996 181.188004
vt -72.469498 144.938995
vt -108.704002 181.188004
vt -108.704002 144.938995
vt 144.938995 144.938995
vt 72.469498 181.188004
vt 72.469498 144.938995
vt -36.234699 144.938995
vt -72.469498 181.188004
vt -72.469498 144.938995
vt 181.173996 181.188004
vt 0.000000 181.188004
vt -181.173996 181.173996
vt -181.173996 181.188004
vt 0.000000 36.234699
vt 0.000000 144.938995
vt 181.173996 144.938995
vt 181.173996 36.234699
vt -181.173996 181.173996
vt -36.234699 144.938995
vt -36.234699 181.173996
vt 36.234699 181.173996
vt 144.938995 144.938995
vt 144.938995 181.173996
vt -181.173996 36.234699
vt -144.938995 72.469498
vt -181.173996 72.469498
vt -144.938995 181.173996
vt -72.469498 144.938995
vt -72.469498 181.173996
vt -181.173996 72.469498
vt -144.938995 108.704002
vt -181.173996 108.704002
vt 181.173996 144.938995
vt -0.000000 108.704002
vt -108.704002 108.704002
vt -36.234699 72.469498
vt -108.704002 72.469498
vt -144.938995 144.938995
vt -36.234699 36.234699
vt 36.234699 36.234699
vt 36.234699 108.704002
vt 181.173996 108.704002
vt 72.469498 108.704002
vt 144.938995 72.469498
vt 72.469498 72.469498
vt 108.704002 72.469498
vt 0.000000 36.234699
vt 36.234699 36.234699
vt -36.234699 108.704002
vt 36.234699 -0.000000
vt -36.234699 108.704002
vt -36.234699 72.469498
vt 72.469498 108.704002
vt 144.938995 72.469498
vt 72.469498 72.469498
vt 36.234699 36.234699
vt 36.234699 0.000000
vt 144.938995 0.000000
vt 72.469498 144.938995
vt 0.000000 181.173996
vt -36.234699 144.938995
vt -181.173996 144.938995
vt -72.469498 72.469498
vt -72.469498 108.704002
vt -144.938995 72.469498
vt -181.173996 108.704002
vt -36.234699 36.234699
vt -0.000000 181.173996
vt -181.173996 181.173996
vt -36.234699 144.938995
vt -181.173996 144.938995
vt -72.469498 72.469498
vt -72.469498 108.704002
vt -144.938995 72.469498
vt -181.173996 108.704002
vt -36.234699 36.234699
vt 108.704002 72.469498
vt 108.704002 108.704002
vt 108.704002 -0.000000
vt 36.234699 36.234699
vt 108.704002 36.234699
vt -72.469498 72.469498
vt -181.173996 36.234699
vt -36.234699 108.704002
vt -72.469498 108.704002
vt -72.469498 36.234699
vt -36.234699 72.469498
vt 72.469498 36.234699
vt 72.469498 0.000000
vt 72.469498 108.704002
vt 144.938995 72.469498
vt 72.469498 72.469498
vt -108.704002 108.704002
vt 144.938995 108.704002
vt -181.173996 72.469498
vt 72.469498 108.704002
vt 72.469498 72.469498
vt 72.469498 0.000000
vt -108.704002 36.234699
vt -181.173996 0.000000
vt -72.469498 36.234699
vt -144.938995 0.000000
vt 181.173996 181.186996
vt 144.938995 181.186996
vt 181.173996 144.938995
vt 144.938995 181.188004
vt -0.000000 0.000000
vt -72.469498 72.469498
vt -72.469498 108.704002
vt -144.938995 72.469498
vt -181.173996 108.704002
vt -36.234699 181.188004
vt 181.173996 108.704002
vt 72.469498 108.704002
vt 144.938995 72.469498
vt 72.469498 72.469498
vt 181.173996 144.938995
vt 181.173996 181.173996
vt 36.234699 144.938995
vt 0.000000 181.173996
vt 144.938995 36.234699
vt 0.000000 144.938995
vt 108.704002 144.938995
vt -72.469498 144.938995
vt -72.469498 181.188004
vt 144.938995 181.188004
vt -36.234699 181.188004
vt -181.173996 144.938995
vt -144.938995 36.234699
vt -144.938995 144.938995
vt -144.938995 72.469498
vn 0.0000 -0.8890 -0.4579
vn 1.0000 0.0000 0.0000
vn -1.0000 -0.0000 0.0000
vn 0.0000 0.8890 0.4579
vn 0.0000 0.4579 -0.8890
vn 0.0000 -0.4579 0.8890
vn 0.0000 0.8892 0.4576
vn 0.0000 0.8893 0.4572
vn -1.0000 0.0004 0.0000
vn -1.0000 0.0002 0.0000
vn 1.0000 -0.0002 0.0000
vn 1.0000 0.0002 0.0000
vn 1.0000 -0.0004 0.0000
vn 1.0000 0.0001 0.0000
usemtl FrontColor.001
s 1
f 2/1/1 4/2/1 1/3/1
f 5/4/2 11/5/2 14/6/2
f 5/4/1 17/7/1 22/8/1
f 26/9/3 24/10/3 16/11/3
f 7/12/4 23/13/4 8/14/4
f 6/15/5 24/16/5 7/12/5
f 8/17/6 26/18/6 9/19/6
f 9/20/4 25/21/4 10/22/4
f 10/22/5 27/23/5 11/24/5
f 27/25/3 29/26/3 28/27/3
f 30/28/1 31/29/1 35/30/1
f 31/31/3 37/32/3 36/33/3
f 38/34/5 31/35/5 36/36/5
f 37/37/4 14/38/4 43/39/4
f 17/40/6 5/4/6 47/41/6
f 18/42/3 17/43/3 55/44/3
f 51/45/4 57/46/4 52/47/4
f 59/48/6 56/49/6 51/50/6
f 58/51/2 62/52/2 59/53/2
f 63/54/4 61/55/4 58/56/4
f 20/57/6 58/58/6 21/59/6
f 64/60/2 20/61/2 19/62/2
f 18/63/5 52/64/5 61/65/5
f 65/66/2 56/67/2 60/68/2
f 59/69/1 65/70/1 60/71/1
f 58/51/2 22/72/2 21/73/2
f 58/56/4 54/74/4 66/75/4
f 68/76/5 54/77/5 53/78/5
f 67/79/1 48/80/1 68/81/1
f 67/82/2 50/83/2 49/84/2
f 53/85/4 50/86/4 69/87/4
f 66/88/2 48/89/2 47/90/2
f 66/75/4 29/91/4 25/21/4
f 66/92/5 15/93/5 22/94/5
f 39/95/7 71/96/8 70/97/8
f 73/98/3 40/99/3 39/100/3
f 75/101/1 72/102/1 74/103/1
f 75/104/3 77/105/3 76/106/3
f 3/107/6 76/108/6 78/109/6
f 76/110/4 83/111/4 78/112/4
f 84/113/5 77/114/5 89/115/5
f 85/116/3 84/117/9 4/118/10
f 82/119/4 86/120/4 85/121/4
f 80/122/2 86/123/2 81/124/2
f 79/125/1 87/126/1 80/127/1
f 78/128/2 88/129/2 79/130/2
f 1/3/1 84/131/1 89/132/1
f 13/133/11 89/132/12 71/134/13
f 11/135/1 75/101/1 12/136/1
f 41/137/3 27/25/3 42/138/3
f 40/139/6 75/140/6 41/141/6
f 42/142/5 35/143/5 43/144/5
f 43/145/2 34/146/2 44/147/2
f 44/148/6 33/149/6 45/150/6
f 45/151/2 32/152/2 38/153/2
f 2/1/1 3/154/1 4/2/1
f 6/155/2 7/156/2 9/157/2
f 7/156/2 8/158/2 9/157/2
f 2/1/2 1/3/14 12/159/2
f 1/3/14 13/133/11 12/159/2
f 5/4/2 6/155/2 9/157/2
f 5/4/2 9/157/2 10/160/2
f 12/159/2 13/133/11 14/6/2
f 5/4/2 10/160/2 11/5/2
f 11/5/2 12/159/2 14/6/2
f 15/161/1 16/162/1 6/155/1
f 18/163/1 19/164/1 21/165/1
f 19/164/1 20/166/1 21/165/1
f 15/161/1 6/155/1 5/4/1
f 18/163/1 21/165/1 22/8/1
f 22/8/1 15/161/1 5/4/1
f 17/7/1 18/163/1 22/8/1
f 26/9/3 23/167/3 24/10/3
f 16/11/3 15/168/3 26/9/3
f 15/168/3 25/169/3 26/9/3
f 7/12/4 24/170/4 23/13/4
f 6/15/5 16/171/5 24/16/5
f 8/17/6 23/172/6 26/18/6
f 9/20/4 26/173/4 25/21/4
f 10/22/5 25/169/5 27/23/5
f 27/25/3 25/169/3 29/26/3
f 31/29/1 32/174/1 34/175/1
f 32/174/1 33/176/1 34/175/1
f 27/177/1 28/178/1 35/30/1
f 28/178/1 30/28/1 35/30/1
f 31/29/1 34/175/1 35/30/1
f 31/31/3 30/179/3 37/32/3
f 38/34/5 32/180/5 31/35/5
f 13/181/7 39/95/7 41/182/4
f 39/95/7 40/183/4 41/182/4
f 45/184/4 38/185/4 44/186/4
f 38/185/4 36/187/4 44/186/4
f 14/38/4 13/181/7 41/182/4
f 14/38/4 41/182/4 42/188/4
f 44/186/4 36/187/4 37/37/4
f 14/38/4 42/188/4 43/39/4
f 43/39/4 44/186/4 37/37/4
f 14/189/6 37/190/6 28/191/6
f 37/190/6 30/192/6 28/191/6
f 49/193/6 50/194/6 48/195/6
f 50/194/6 46/196/6 48/195/6
f 5/4/6 14/189/6 29/197/6
f 14/189/6 28/191/6 29/197/6
f 48/195/6 46/196/6 17/40/6
f 5/4/6 29/197/6 47/41/6
f 47/41/6 48/195/6 17/40/6
f 55/44/3 51/198/3 52/199/3
f 17/43/3 46/200/3 54/201/3
f 46/200/3 53/202/3 54/201/3
f 55/44/3 52/199/3 18/42/3
f 17/43/3 54/201/3 55/44/3
f 51/45/4 56/203/4 57/46/4
f 55/204/6 58/58/6 59/48/6
f 59/48/6 60/68/6 56/49/6
f 51/50/6 55/204/6 59/48/6
f 58/51/2 61/205/2 62/52/2
f 63/54/4 64/206/4 61/55/4
f 20/57/6 63/207/6 58/58/6
f 64/60/2 63/208/2 20/61/2
f 64/209/5 19/210/5 61/65/5
f 19/210/5 18/63/5 61/65/5
f 52/64/5 57/211/5 62/212/5
f 57/211/5 65/213/5 62/212/5
f 52/64/5 62/212/5 61/65/5
f 65/66/2 57/214/2 56/67/2
f 59/69/1 62/215/1 65/70/1
f 58/51/2 66/88/2 22/72/2
f 58/56/4 55/216/4 54/74/4
f 69/217/5 67/218/5 68/76/5
f 68/76/5 66/92/5 54/77/5
f 53/78/5 69/217/5 68/76/5
f 67/79/1 49/219/1 48/80/1
f 67/82/2 69/220/2 50/83/2
f 53/85/4 46/221/4 50/86/4
f 66/88/2 68/222/2 48/89/2
f 66/75/4 47/223/4 29/91/4
f 66/92/5 25/169/5 15/93/5
f 39/95/7 13/181/7 71/96/8
f 70/224/3 72/225/3 39/100/3
f 72/225/3 73/98/3 39/100/3
f 75/101/1 73/226/1 72/102/1
f 75/104/3 74/227/3 77/105/3
f 12/136/6 75/140/6 76/108/6
f 2/228/6 12/136/6 76/108/6
f 80/229/6 81/230/6 79/231/6
f 81/230/6 82/232/6 79/231/6
f 3/107/6 2/228/6 76/108/6
f 78/109/6 79/231/6 3/107/6
f 79/231/6 82/232/6 3/107/6
f 76/110/4 77/233/4 83/111/4
f 85/234/5 86/235/5 88/236/5
f 86/235/5 87/237/5 88/236/5
f 72/238/5 70/239/5 74/240/5
f 70/239/5 71/241/5 74/240/5
f 84/113/5 85/234/5 83/242/5
f 85/234/5 88/236/5 83/242/5
f 74/240/5 71/241/5 89/115/5
f 84/113/5 83/242/5 77/114/5
f 77/114/5 74/240/5 89/115/5
f 4/118/10 3/243/3 82/244/3
f 82/244/3 85/116/3 4/118/10
f 82/119/4 81/245/4 86/120/4
f 80/122/2 87/246/2 86/123/2
f 79/125/1 88/247/1 87/126/1
f 78/128/2 83/248/2 88/129/2
f 1/3/1 4/2/1 84/131/1
f 13/133/11 1/3/14 89/132/12
f 11/135/1 27/177/1 75/101/1
f 41/137/3 75/104/3 27/25/3
f 40/139/6 73/249/6 75/140/6
f 42/142/5 27/23/5 35/143/5
f 43/145/2 35/250/2 34/146/2
f 44/148/6 34/251/6 33/149/6
f 45/151/2 33/252/2 32/152/2
