# Blender v2.91.0 OBJ File: 'gestalt_cube.blend'
# www.blender.org
mtllib gestalt_cube_2.mtl
o gestalt_cube_object
v -3.017568 -19.254343 -2.868638
v -3.017568 -13.682277 -13.847530
v -3.017568 -24.661167 -19.419596
v -3.017568 -30.233234 -8.440702
v 21.606289 -13.682277 -13.847530
v 21.606289 -19.254343 -2.868638
v 21.606289 -2.703413 -8.275479
v -3.017568 -2.703413 -8.275479
v -3.017568 8.275479 -2.703413
v 33.918236 8.275479 -2.703413
v 33.918236 -24.661167 -19.419596
v 21.606289 -35.805283 2.538160
v 21.606289 -24.826393 8.110226
v 21.606289 -30.398458 19.089117
v 21.606289 -19.419596 24.661167
v 21.606289 -30.233234 -8.440702
v -15.329479 -24.826393 8.110226
v -15.329479 -35.805283 2.538160
v -15.329479 -30.398458 19.089117
v -15.329479 -2.703413 -8.275479
v -15.329479 8.275479 -2.703413
v -15.329479 -8.440702 30.233234
v -15.329479 -13.847530 13.682277
v -27.641426 -2.703413 -8.275479
v -27.641426 8.275479 -2.703413
v -27.641426 -41.377350 13.517052
v -27.641426 -8.440702 30.233234
v -27.641426 -13.847530 13.682277
v -27.641426 -24.826393 8.110226
v -27.641426 -8.110226 -24.826393
v -27.641426 24.826393 -8.110226
v -27.641426 2.538160 35.805283
v -27.641426 13.517052 41.377350
v -27.641426 41.377350 -13.517052
v -27.641426 -13.517052 -41.377350
v 33.918236 -41.377350 13.517052
v 33.918236 -8.440702 30.233234
v -3.017568 -8.440702 30.233234
v -3.017568 -19.419596 24.661167
v 33.918236 -13.517052 -41.377350
v 33.918236 -19.089117 -30.398458
v -15.329479 -19.089117 -30.398458
v 33.918236 19.419596 -24.661167
v 33.918236 41.377350 -13.517052
v 33.918236 30.398458 -19.089117
v -15.329479 30.398458 -19.089117
v -15.329479 -2.538160 -35.805283
v 21.606289 -2.538160 -35.805283
v 21.606289 8.440702 -30.233234
v -3.017568 8.440702 -30.233234
v -3.017568 19.419596 -24.661167
v 33.918236 13.847530 -13.682277
v -3.017568 13.847530 -13.682277
v -3.017568 2.868638 -19.254343
v 21.606289 2.868638 -19.254343
v 21.606289 -8.110226 -24.826393
v -15.329479 -8.110226 -24.826393
v -15.329479 24.826393 -8.110226
v 33.918236 24.826393 -8.110226
v 33.918236 35.809437 -2.536053
v 33.918236 41.381500 -13.514944
v -15.329479 35.809437 -2.536053
v -15.329479 8.110226 24.826393
v -15.329479 19.093269 30.400566
v 21.606289 8.110226 24.826393
v 21.606289 13.682277 13.847530
v -3.017568 13.682277 13.847530
v -3.017568 19.254343 2.868638
v 33.918236 19.254343 2.868638
v 33.918236 2.538160 35.805283
v 21.606289 19.093269 30.400566
v 33.918236 13.521204 41.379456
v 33.918236 30.237387 8.442810
v -3.017568 30.237387 8.442810
v -3.017568 24.665319 19.421703
v 21.606289 24.665319 19.421703
v -27.641426 41.381500 -13.514944
v -27.641426 13.521204 41.379456
v 33.918236 13.517052 41.377350
vt -108.704002 36.234699
vt -72.469498 0.000000
vt -72.469498 36.234699
vt 72.469498 108.704002
vt 144.938995 72.469498
vt 144.938995 108.704002
vt -144.938995 72.469498
vt -181.173996 108.704002
vt -181.173996 -0.000000
vt -36.234699 36.234699
vt -0.000000 72.469498
vt -72.469498 36.234699
vt -144.938995 36.234699
vt -36.234699 0.000000
vt -36.234699 36.234699
vt 144.938995 36.234699
vt 36.234699 0.000000
vt 144.938995 0.000000
vt 36.234699 72.469498
vt 108.704002 108.704002
vt 0.000000 108.704002
vt -0.000000 108.704002
vt -36.234699 72.469498
vt -0.000000 72.469498
vt -0.000000 -0.000000
vt -144.938995 36.234699
vt -181.173996 -0.000000
vt 181.173996 0.000000
vt 144.938995 36.234699
vt 0.000000 0.000000
vt 36.234699 108.704002
vt -181.173996 0.000000
vt -144.938995 36.234699
vt 108.704002 108.704002
vt 0.000000 0.000000
vt 108.704002 0.000000
vt 181.173996 0.000000
vt 72.469498 108.704002
vt 72.469498 0.000000
vt -108.704002 72.469498
vt -0.000000 108.704002
vt -108.704002 108.704002
vt -72.469498 0.000000
vt -144.938995 108.704002
vt -144.938995 0.000000
vt -181.173996 -0.000000
vt -0.000000 -0.000000
vt -144.938995 36.234699
vt 144.938995 108.704002
vt 181.173996 0.000000
vt 181.173996 108.704002
vt 72.469498 181.173996
vt 181.173996 144.938995
vt 181.173996 181.173996
vt -181.173996 72.469498
vt -144.938995 108.704002
vt -181.173996 108.704002
vt -144.938995 181.173996
vt -72.469498 144.938995
vt -72.469498 181.173996
vt -181.173996 36.234699
vt -144.938995 72.469498
vt -181.173996 72.469498
vt 36.234699 181.173996
vt 144.938995 144.938995
vt 144.938995 181.173996
vt 144.938995 144.938995
vt 181.173996 36.234699
vt 181.173996 144.938995
vt -181.173996 181.173996
vt -36.234699 144.938995
vt -36.234699 181.173996
vt 144.938995 144.938995
vt 181.173996 144.938995
vt 181.173996 181.173996
vt 36.234699 144.938995
vt 181.173996 181.188004
vt 36.234699 181.188004
vt 36.234699 181.188004
vt 36.234699 144.938995
vt -181.173996 0.000000
vt -36.234699 36.234699
vt -144.938995 36.234699
vt -36.234699 144.938995
vt -144.938995 181.188004
vt -144.938995 144.938995
vt 181.173996 0.000000
vt 36.234699 36.234699
vt 0.000000 0.000000
vt 108.704002 181.188004
vt 0.000000 181.188004
vt 0.000000 181.173996
vt -181.173996 144.938995
vt -72.469498 181.188004
vt -181.173996 181.188004
vt -72.469498 144.938995
vt -108.704002 181.188004
vt -108.704002 144.938995
vt 144.938995 144.938995
vt 72.469498 181.188004
vt 72.469498 144.938995
vt -36.234699 144.938995
vt -72.469498 181.188004
vt -72.469498 144.938995
vt 0.000000 181.173996
vt 181.173996 181.188004
vt 0.000000 181.188004
vt -181.173996 181.173996
vt -181.173996 181.188004
vt -181.173996 181.173996
vt -0.000000 181.188004
vt -181.173996 181.188004
vt 0.000000 144.938995
vt 181.173996 181.173996
vt 0.000000 36.234699
vt 0.000000 144.938995
vt 0.000000 36.234699
vt 36.234699 144.938995
vt 0.000000 144.938995
vt -0.000000 72.469498
vt -0.000000 108.704002
vt -36.234699 36.234699
vt -0.000000 36.234699
vt 144.938995 36.234699
vt 36.234699 0.000000
vt 144.938995 0.000000
vt 181.173996 0.000000
vt 181.173996 108.704002
vt 144.938995 36.234699
vt 72.469498 36.234699
vt 144.938995 0.000000
vt 144.938995 36.234699
vt -108.704002 0.000000
vt 72.469498 72.469498
vt -72.469498 -0.000000
vt -144.938995 36.234699
vt -72.469498 36.234699
vt -72.469498 72.469498
vt -72.469498 108.704002
vt -72.469498 0.000000
vt -36.234699 0.000000
vt -0.000000 36.234699
vt -108.704002 72.469498
vt -108.704002 36.234699
vt -144.938995 0.000000
vt 36.234699 36.234699
vt 108.704002 72.469498
vt 0.000000 36.234699
vt -36.234699 108.704002
vt -0.000000 108.704002
vt -108.704002 108.704002
vt -36.234699 72.469498
vt -108.704002 72.469498
vt -144.938995 144.938995
vt -36.234699 36.234699
vt 36.234699 36.234699
vt 36.234699 108.704002
vt 181.173996 108.704002
vt 72.469498 108.704002
vt 144.938995 72.469498
vt 72.469498 72.469498
vt 36.234699 0.000000
vt -0.000000 181.173996
vt -181.173996 181.173996
vt -36.234699 144.938995
vt -181.173996 144.938995
vt -72.469498 72.469498
vt -72.469498 108.704002
vt -144.938995 72.469498
vt -181.173996 108.704002
vt -36.234699 36.234699
vt 0.000000 108.704002
vt 181.173996 108.704002
vt -0.000000 72.469498
vt -72.469498 108.704002
vt -0.000000 181.173996
vt -36.234699 144.938995
vt -181.173996 144.938995
vt -72.469498 72.469498
vt -72.469498 108.704002
vt -144.938995 72.469498
vt -181.173996 108.704002
vt -36.234699 36.234699
vt 144.938995 0.000000
vt 72.469498 144.938995
vt -144.938995 72.469498
vt -144.938995 144.938995
vt -144.938995 36.234699
vt -181.173996 144.938995
vt 181.173996 181.188004
vt 144.938995 181.188004
vt 181.173996 144.938995
vt 144.938995 181.188004
vt -0.000000 0.000000
vt -72.469498 72.469498
vt -72.469498 108.704002
vt -144.938995 72.469498
vt -181.173996 108.704002
vt -36.234699 181.188004
vt 181.173996 108.704002
vt 72.469498 108.704002
vt 144.938995 72.469498
vt 72.469498 72.469498
vt 181.173996 144.938995
vt 181.173996 181.173996
vt 36.234699 144.938995
vt 0.000000 181.173996
vt 144.938995 36.234699
vt 0.000000 144.938995
vt 108.704002 144.938995
vt -72.469498 144.938995
vt -72.469498 181.188004
vt 144.938995 181.188004
vt -36.234699 181.188004
vt 181.173996 144.938995
vt 36.234699 36.234699
vt -36.234699 72.469498
vt -36.234699 108.704002
vt 72.469498 108.704002
vt 144.938995 72.469498
vt 72.469498 72.469498
vt 36.234699 0.000000
vt 72.469498 0.000000
vn -1.0000 -0.0000 0.0000
vn 0.0000 0.8917 0.4526
vn 0.0000 0.4526 -0.8917
vn 1.0000 0.0000 0.0000
vn -0.0000 -0.4526 0.8917
vn -0.0000 -0.8917 -0.4526
vn 1.0000 0.0005 0.0000
vn 1.0000 0.0001 0.0000
vn 0.0000 -0.4524 0.8918
vn 0.0000 -0.4523 0.8919
vn -1.0000 -0.0002 0.0000
vn 0.0000 0.4528 -0.8916
vn 0.0000 0.4530 -0.8915
vn -1.0000 -0.0001 0.0000
vn 1.0000 0.0011 0.0000
usemtl FrontColor
s 1
f 2/1/1 4/2/1 1/3/1
f 2/4/2 6/5/2 5/6/2
f 7/7/3 10/8/3 11/9/3
f 13/10/1 15/11/1 6/12/1
f 13/13/3 18/14/3 17/15/3
f 13/16/2 19/17/2 14/18/2
f 23/19/4 21/20/4 22/21/4
f 25/22/3 20/23/3 24/24/3
f 26/25/1 30/26/1 35/27/1
f 26/25/5 36/28/5 14/29/5
f 27/30/2 21/31/2 25/22/2
f 36/32/6 26/25/6 12/33/6
f 10/34/4 36/35/4 11/36/4
f 37/37/2 9/38/2 38/39/2
f 8/40/1 38/41/1 9/42/1
f 39/43/6 7/44/6 15/45/6
f 40/46/3 35/47/3 48/48/3
f 52/49/4 40/50/4 43/51/4
f 51/52/2 52/53/2 43/54/2
f 50/55/1 53/56/1 51/57/1
f 49/58/6 54/59/6 50/60/6
f 48/61/1 55/62/1 49/63/1
f 47/64/2 56/65/2 48/66/2
f 58/67/4 47/68/4 46/69/4
f 45/70/6 58/71/6 46/72/6
f 59/73/4 45/74/4 44/75/7
f 58/76/5 60/77/5 62/78/5
f 58/67/4 64/79/4 63/80/4
f 70/81/6 63/82/6 65/83/6
f 63/84/3 71/85/3 65/86/3
f 72/87/2 64/88/2 78/89/2
f 73/90/4 72/91/8 79/92/8
f 69/93/3 74/94/3 73/95/3
f 67/96/1 74/97/1 68/98/1
f 66/99/5 75/100/5 67/101/5
f 65/102/1 76/103/1 66/104/1
f 33/105/9 72/106/10 78/107/10
f 34/108/1 78/107/11 77/109/1
f 44/110/12 77/111/13 61/112/13
f 32/113/5 79/114/9 33/105/9
f 30/115/5 58/76/5 31/116/5
f 29/117/2 57/118/2 30/119/2
f 28/120/3 17/15/3 29/117/3
f 24/121/6 23/122/6 28/123/6
f 57/124/4 18/125/4 42/126/4
f 41/127/5 52/128/5 56/129/5
f 1/130/5 16/131/5 6/132/5
f 2/1/1 3/133/1 4/2/1
f 2/4/2 1/134/2 6/5/2
f 11/9/3 3/135/3 5/136/3
f 3/135/3 2/137/3 5/136/3
f 8/138/3 9/139/3 7/7/3
f 9/139/3 10/8/3 7/7/3
f 11/9/3 5/136/3 7/7/3
f 16/140/1 12/141/1 13/10/1
f 13/10/1 14/142/1 15/11/1
f 15/11/1 7/143/1 6/12/1
f 7/143/1 5/144/1 6/12/1
f 6/12/1 16/140/1 13/10/1
f 13/13/3 12/145/3 18/14/3
f 13/16/2 17/146/2 19/17/2
f 23/19/4 20/147/4 21/20/4
f 22/21/4 19/148/4 23/19/4
f 19/148/4 17/146/4 23/19/4
f 25/22/3 21/149/3 20/23/3
f 27/150/1 25/151/1 28/152/1
f 25/151/1 24/153/1 28/152/1
f 32/113/1 33/105/14 31/154/1
f 33/105/14 34/108/1 31/154/1
f 26/25/1 27/150/1 28/152/1
f 26/25/1 28/152/1 29/155/1
f 31/154/1 34/108/1 35/27/1
f 26/25/1 29/155/1 30/26/1
f 30/26/1 31/154/1 35/27/1
f 19/156/5 22/157/5 27/150/5
f 37/158/5 38/159/5 15/160/5
f 38/159/5 39/161/5 15/160/5
f 19/156/5 27/150/5 26/25/5
f 37/158/5 15/160/5 14/29/5
f 14/29/5 19/156/5 26/25/5
f 36/28/5 37/158/5 14/29/5
f 27/30/2 22/162/2 21/31/2
f 35/163/6 40/164/6 42/165/6
f 40/164/6 41/166/6 42/165/6
f 4/167/6 3/168/6 16/169/6
f 3/168/6 11/170/6 16/169/6
f 26/25/6 35/163/6 18/171/6
f 35/163/6 42/165/6 18/171/6
f 16/169/6 11/170/6 36/32/6
f 26/25/6 18/171/6 12/33/6
f 12/33/6 16/169/6 36/32/6
f 10/34/4 37/172/4 36/35/4
f 37/37/2 10/173/2 9/38/2
f 8/40/1 39/174/1 38/41/1
f 39/43/6 8/175/6 7/44/6
f 34/176/12 44/110/12 46/177/3
f 44/110/12 45/178/3 46/177/3
f 50/179/3 51/180/3 49/181/3
f 51/180/3 43/182/3 49/181/3
f 35/47/3 34/176/12 46/177/3
f 35/47/3 46/177/3 47/183/3
f 49/181/3 43/182/3 40/46/3
f 35/47/3 47/183/3 48/48/3
f 48/48/3 49/181/3 40/46/3
f 52/49/4 41/184/4 40/50/4
f 51/52/2 53/185/2 52/53/2
f 50/55/1 54/186/1 53/56/1
f 49/58/6 55/187/6 54/59/6
f 48/61/1 56/188/1 55/62/1
f 47/64/2 57/118/2 56/65/2
f 58/67/4 57/124/4 47/68/4
f 45/70/6 59/189/6 58/71/6
f 61/190/15 60/191/4 44/75/7
f 60/191/4 59/73/4 44/75/7
f 58/76/5 59/192/5 60/77/5
f 58/67/4 62/193/4 64/79/4
f 31/116/6 58/71/6 63/82/6
f 32/194/6 31/116/6 63/82/6
f 67/195/6 68/196/6 66/197/6
f 68/196/6 69/198/6 66/197/6
f 70/81/6 32/194/6 63/82/6
f 65/83/6 66/197/6 70/81/6
f 66/197/6 69/198/6 70/81/6
f 63/84/3 64/199/3 71/85/3
f 73/200/2 74/201/2 76/202/2
f 74/201/2 75/203/2 76/202/2
f 60/204/2 61/205/2 62/206/2
f 61/205/2 77/207/2 62/206/2
f 72/87/2 73/200/2 71/208/2
f 73/200/2 76/202/2 71/208/2
f 62/206/2 77/207/2 78/89/2
f 72/87/2 71/208/2 64/88/2
f 64/88/2 62/206/2 78/89/2
f 79/92/8 70/209/4 69/210/4
f 69/210/4 73/90/4 79/92/8
f 69/93/3 68/211/3 74/94/3
f 67/96/1 75/212/1 74/97/1
f 66/99/5 76/213/5 75/100/5
f 65/102/1 71/214/1 76/103/1
f 33/105/9 79/114/9 72/106/10
f 34/108/1 33/105/14 78/107/11
f 44/110/12 34/176/12 77/111/13
f 32/113/5 70/215/5 79/114/9
f 30/115/5 57/216/5 58/76/5
f 29/117/2 17/146/2 57/118/2
f 28/120/3 23/217/3 17/15/3
f 24/121/6 20/218/6 23/122/6
f 57/124/4 17/146/4 18/125/4
f 52/128/5 53/219/5 55/220/5
f 53/219/5 54/221/5 55/220/5
f 57/216/5 42/222/5 56/129/5
f 42/222/5 41/127/5 56/129/5
f 52/128/5 55/220/5 56/129/5
f 1/130/5 4/223/5 16/131/5
