# Alias OBJ Model File
# Exported from SketchUp, (c) 2000-2012 Trimble Navigation Limited
# File units = inches

mtllib gestalt_cube_cut_1.mtl

g Mesh1 Group1 Model

usemtl FrontColor
v 0 181.188 -1.13687e-13
vt 0 181.188
vn 0 9.11461e-12 1
v 0 181.174 -0
vt 0 181.174
v 181.174 181.174 -0
vt 181.174 181.174
v 181.174 181.188 -1.13687e-13
vt 181.174 181.188
f 1/1/1 2/2/1 3/3/1 4/4/1 

vt -1.13687e-13 181.188
vn -1 0 -0
v 0 181.188 -181.174
vt -181.174 181.188
v 0 0 -181.174
vt -181.174 0
v 0 0 -1.13687e-13
vt -1.13687e-13 0
f 1/5/2 5/6/2 6/7/2 7/8/2 2/2/2 

vt 181.174 1.13687e-13
vn 0 1 -0
v 181.174 181.188 -108.704
vt 181.174 108.704
v 72.4695 181.188 -108.704
vt 72.4695 108.704
v 72.4695 181.188 -72.4695
vt 72.4695 72.4695
v 144.939 181.188 -72.4695
vt 144.939 72.4695
v 144.939 181.188 -36.2347
vt 144.939 36.2347
v 36.2347 181.188 -36.2347
vt 36.2347 36.2347
v 36.2347 181.188 -144.939
vt 36.2347 144.939
v 181.174 181.188 -144.939
vt 181.174 144.939
v 181.174 181.188 -181.174
vt 0 1.13687e-13
f 4/9/3 8/10/3 9/11/3 10/12/3 11/13/3 12/14/3 13/15/3 14/16/3 15/17/3 16/3/3 5/2/3 1/18/3 

v 181.174 0 -1.13687e-13
vt 1.13687e-13 0
vn 1 0 -0
v 181.174 0 -108.704
vt 108.704 0
vt 108.704 181.188
vt 1.13687e-13 181.188
f 17/19/4 18/20/4 8/21/4 4/22/4 3/2/4 

vt -181.174 108.704
vn 0 -1 -0
vt -181.174 1.13687e-13
v 181.174 0 -181.174
vt -181.174 181.174
v 181.174 0 -144.939
vt -181.174 144.939
v 36.2347 0 -144.939
vt -36.2347 144.939
v 36.2347 0 -36.2347
vt -36.2347 36.2347
v 144.939 0 -36.2347
vt -144.939 36.2347
v 144.939 0 -72.4695
vt -144.939 72.4695
v 72.4695 0 -72.4695
vt -72.4695 72.4695
v 72.4695 0 -108.704
vt -72.4695 108.704
f 18/23/5 17/24/5 7/18/5 6/2/5 19/25/5 20/26/5 21/27/5 22/28/5 23/29/5 24/30/5 25/31/5 26/32/5 

vt -1.04316e-29 -7.40307e-29
vn -9.17573e-17 -6.51181e-16 1
vt 181.174 -8.4856e-29
f 7/33/6 17/34/6 3/3/6 2/2/6 

vn 0 0 -1
vt 0 0
f 5/1/7 16/6/7 19/7/7 6/35/7 

vt 144.939 181.188
vt 144.939 0
vt 181.174 0
f 15/36/4 20/37/4 19/38/4 16/4/4 

vn 0 0 1
vt 36.2347 181.188
vt 36.2347 0
f 15/4/8 14/39/8 21/40/8 20/38/8 

f 14/36/4 13/39/4 22/40/4 21/37/4 

vt -36.2347 181.188
vn 6.53648e-17 0 -1
vt -144.939 181.188
vt -144.939 0
vt -36.2347 0
f 13/41/9 12/42/9 23/43/9 22/44/9 

vt -72.4695 181.188
vt -72.4695 0
f 12/41/2 11/45/2 24/46/2 23/44/2 

vt 72.4695 181.188
vt 72.4695 0
f 11/36/8 10/47/8 25/48/8 24/37/8 

vn -1 0 -3.92189e-16
vt -108.704 181.188
vt -108.704 0
f 10/45/10 9/49/10 26/50/10 25/46/10 

vn -1.3073e-16 0 -1
f 9/45/11 8/6/11 18/7/11 26/46/11 

